<svg xmlns="http://www.w3.org/2000/svg" xmlns:xlink="http://www.w3.org/1999/xlink" width="50" zoomAndPan="magnify" viewBox="0 0 37.5 37.499999" height="50" preserveAspectRatio="xMidYMid meet" version="1.0"><defs><g/><clipPath id="a374e1f7b0"><path d="M 0 0 L 37.007812 0 L 37.007812 37.007812 L 0 37.007812 Z M 0 0 " clip-rule="nonzero"/></clipPath><clipPath id="830bb96746"><path d="M 2.207031 17 L 34.773438 17 L 34.773438 33.304688 L 2.207031 33.304688 Z M 2.207031 17 " clip-rule="nonzero"/></clipPath><clipPath id="c2606cd4cc"><path d="M 2.207031 3.699219 L 32 3.699219 L 32 20 L 2.207031 20 Z M 2.207031 3.699219 " clip-rule="nonzero"/></clipPath></defs><g clip-path="url(#a374e1f7b0)"><path fill="#ffffff" d="M 0 0 L 37.007812 0 L 37.007812 37.007812 L 0 37.007812 Z M 0 0 " fill-opacity="1" fill-rule="nonzero"/><path fill="#ffffff" d="M 0 0 L 37.007812 0 L 37.007812 37.007812 L 0 37.007812 Z M 0 0 " fill-opacity="1" fill-rule="nonzero"/></g><g clip-path="url(#830bb96746)"><path fill="#004aad" d="M 31.941406 18.132812 C 31.945312 18.277344 31.945312 18.421875 31.945312 18.566406 C 31.945312 22.660156 30.277344 26.375 27.582031 29.070312 C 24.890625 31.761719 21.171875 33.433594 17.082031 33.433594 L 2.214844 33.433594 L 2.214844 26.011719 C 10.027344 18.867188 22.34375 15.703125 34.789062 18.101562 C 33.832031 18.078125 32.882812 18.089844 31.941406 18.132812 Z M 9.101562 27.175781 L 17.082031 27.175781 C 19.445312 27.175781 21.597656 26.207031 23.160156 24.644531 C 24.648438 23.15625 25.597656 21.128906 25.683594 18.894531 C 19.21875 20.203125 13.425781 23.054688 9.101562 27.175781 Z M 9.101562 27.175781 " fill-opacity="1" fill-rule="nonzero"/></g><g clip-path="url(#c2606cd4cc)"><path fill="#004aad" d="M 5.34375 3.699219 L 17.082031 3.699219 C 21.171875 3.699219 24.890625 5.371094 27.582031 8.066406 C 29.796875 10.277344 31.320312 13.183594 31.792969 16.417969 C 29.625 15.957031 27.375 15.625 25.09375 15.433594 C 24.65625 14.320312 23.992188 13.320312 23.160156 12.488281 C 21.597656 10.925781 19.445312 9.957031 17.082031 9.957031 L 8.46875 9.957031 L 8.46875 14.984375 C 12.128906 14.675781 15.972656 14.753906 19.863281 15.3125 C 13.429688 15.511719 7.289062 16.832031 2.214844 19.246094 L 2.214844 3.699219 Z M 5.34375 3.699219 " fill-opacity="1" fill-rule="nonzero"/></g><g fill="#004aad" fill-opacity="1"><g transform="translate(5.369107, 7.920458)"><g><path d="M 0.4375 0.015625 C 0.332031 0.015625 0.25 -0.0078125 0.1875 -0.0625 C 0.132812 -0.113281 0.109375 -0.191406 0.109375 -0.296875 C 0.109375 -0.359375 0.117188 -0.410156 0.140625 -0.453125 C 0.171875 -0.492188 0.210938 -0.523438 0.265625 -0.546875 C 0.316406 -0.578125 0.390625 -0.601562 0.484375 -0.625 C 0.554688 -0.632812 0.613281 -0.644531 0.65625 -0.65625 C 0.695312 -0.675781 0.722656 -0.695312 0.734375 -0.71875 C 0.742188 -0.738281 0.75 -0.765625 0.75 -0.796875 C 0.75 -0.835938 0.734375 -0.867188 0.703125 -0.890625 C 0.671875 -0.921875 0.617188 -0.9375 0.546875 -0.9375 C 0.472656 -0.9375 0.410156 -0.921875 0.359375 -0.890625 C 0.316406 -0.867188 0.273438 -0.832031 0.234375 -0.78125 L 0.21875 -0.78125 L 0.140625 -0.890625 C 0.179688 -0.953125 0.234375 -1 0.296875 -1.03125 C 0.367188 -1.0625 0.453125 -1.078125 0.546875 -1.078125 C 0.671875 -1.078125 0.757812 -1.050781 0.8125 -1 C 0.875 -0.945312 0.90625 -0.867188 0.90625 -0.765625 L 0.90625 -0.203125 C 0.90625 -0.148438 0.929688 -0.125 0.984375 -0.125 C 1.003906 -0.125 1.019531 -0.125 1.03125 -0.125 L 1.046875 -0.125 L 1.0625 -0.015625 C 1.050781 -0.00390625 1.035156 0 1.015625 0 C 0.992188 0 0.976562 0 0.96875 0 C 0.90625 0 0.859375 -0.0078125 0.828125 -0.03125 C 0.796875 -0.0507812 0.773438 -0.0859375 0.765625 -0.140625 L 0.75 -0.140625 C 0.71875 -0.0859375 0.675781 -0.046875 0.625 -0.015625 C 0.570312 0.00390625 0.507812 0.015625 0.4375 0.015625 Z M 0.46875 -0.109375 C 0.53125 -0.109375 0.582031 -0.117188 0.625 -0.140625 C 0.664062 -0.171875 0.695312 -0.207031 0.71875 -0.25 C 0.75 -0.300781 0.765625 -0.363281 0.765625 -0.4375 L 0.765625 -0.5625 L 0.734375 -0.5625 C 0.710938 -0.550781 0.6875 -0.539062 0.65625 -0.53125 C 0.625 -0.519531 0.578125 -0.507812 0.515625 -0.5 C 0.453125 -0.488281 0.398438 -0.472656 0.359375 -0.453125 C 0.328125 -0.441406 0.300781 -0.421875 0.28125 -0.390625 C 0.269531 -0.367188 0.265625 -0.335938 0.265625 -0.296875 C 0.265625 -0.234375 0.28125 -0.1875 0.3125 -0.15625 C 0.351562 -0.125 0.40625 -0.109375 0.46875 -0.109375 Z M 0.46875 -0.109375 "/></g></g></g></svg>